<svg xmlns="http://www.w3.org/2000/svg" width="23.35" height="24.659" viewBox="0 0 23.35 24.659"><defs><style>.a{fill:#00ece7;}</style></defs><g transform="translate(0 -0.021)"><path class="a" d="M18.17,5.6h0Z"/><path class="a" d="M23.3,17.3Z"/><path class="a" d="M20.98,6.93v.01h0Z"/><path class="a" d="M23.22,16.61h0l-.36-.67-2.31-4.46a4.2,4.2,0,0,0,.49-.68h0a4,4,0,0,0,.54-1.94h0A3.24,3.24,0,0,0,21,6.94a3.06,3.06,0,0,0-1.39-1.08h0a3.83,3.83,0,0,0-1.36-.25H18.2a5.14,5.14,0,0,0-.64.07L16,2.67h0L15.24,1.2h0L15,.81h0V.7L14.83.39h0a1,1,0,0,0-1.3-.22h0L13.3.36h-.05l-.16.25h0l-.26.5h0c-.33.69-.9,1.84-1.59,3h0a15.72,15.72,0,0,1-2.4,3.4,20.88,20.88,0,0,1-4,2.88h0L2.93,11.52h0a9.68,9.68,0,0,0-1.48,1h0a4.36,4.36,0,0,0-1,1.55h0a5.55,5.55,0,0,0-.4,2H0a4.83,4.83,0,0,0,.63,2.39h0a5.17,5.17,0,0,0,2.16,2h0a4.35,4.35,0,0,0,2,.48h0a5.61,5.61,0,0,0,.93-.1v.31a9.9,9.9,0,0,0,.1,1.07h0a1.025,1.025,0,0,0,.05.41h0L6,23H6v.1H6l.07.15h0s.08.15.17.29h0a2.71,2.71,0,0,0,.66.71h0a2.22,2.22,0,0,0,1.31.43H8.5a2.06,2.06,0,0,0,1.11-.49h0a2.86,2.86,0,0,0,.73-1.08h0a3.35,3.35,0,0,0,.18-.55v-.2L10.33,19l.51-.28h0a9.91,9.91,0,0,1,3.33-1.21,17.43,17.43,0,0,1,2-.12h.07a25.8,25.8,0,0,1,4.06.35h0c.54.09,1,.17,1.26.24h0L22,18h.35a1,1,0,0,0,1-.76V17A1,1,0,0,0,23.22,16.61ZM16.3,15.35h-.05a19.419,19.419,0,0,0-2.3.14h0a11.62,11.62,0,0,0-3.48,1.16L7.4,11.15a19.59,19.59,0,0,0,2.85-2.21h0a20.27,20.27,0,0,0,3.26-4.72h0c.19-.36.36-.69.52-1,.9,1.76,2.38,4.62,3.79,7.34l2.67,5.15a28.3,28.3,0,0,0-4.19-.34Zm3.21-6-.92-1.78.3.08a1.06,1.06,0,0,1,.48.38h0a1.24,1.24,0,0,1,.24.73,2,2,0,0,1-.1.64ZM4.79,19.11a2.33,2.33,0,0,1-1.09-.27l-.06.08v-.09a3.16,3.16,0,0,1-1.35-1.21A2.83,2.83,0,0,1,2,16.23H2a3.56,3.56,0,0,1,.26-1.32h0a2.37,2.37,0,0,1,.54-.83,7.84,7.84,0,0,1,1.16-.81h0l1.74-1,3,5.38a22.7,22.7,0,0,1-2.13,1.08h0a4.68,4.68,0,0,1-1.78.38Zm3.8,3.19a1.59,1.59,0,0,1-.13.28h0l-.14.17H8.13L8,22.63l-.1-.14v-.1c0-.33-.11-1-.15-1.59h0v-.46L8.39,20Z"/></g></svg>