<svg xmlns="http://www.w3.org/2000/svg" width="91.457" height="23.203" viewBox="0 0 91.457 23.203"><defs><style>.a{fill:#fff;}</style></defs><g transform="translate(-20.062 -22)"><path class="a" d="M24.2,159.914a1.127,1.127,0,0,0-1.315.9l-.8,4.237a1.128,1.128,0,1,0,2.216.421l.8-4.237a1.127,1.127,0,0,0-.9-1.322Z" transform="matrix(-0.174, 0.985, -0.985, -0.174, 188.288, 39.692)"/><path class="a" d="M13.923,156.188,8.762,162.3a1.127,1.127,0,1,0,1.721,1.458l5.154-6.108a1.127,1.127,0,1,0-1.721-1.458Z" transform="matrix(-0.174, 0.985, -0.985, -0.174, 186.697, 42.84)"/><path class="a" d="M11.419,149.363a1.127,1.127,0,0,0-1.458-.639l-4.02,1.563a1.129,1.129,0,1,0,.819,2.1l4.02-1.563a1.127,1.127,0,0,0,.639-1.465Z" transform="matrix(-0.174, 0.985, -0.985, -0.174, 184.806, 43.333)"/><g transform="translate(29.954 27.02)"><g transform="translate(44.546 0.923)"><g transform="translate(0)"><path class="a" d="M109.914,81.9a1.394,1.394,0,0,1,.448,1.058V97.015a1.432,1.432,0,0,1-1.506,1.481,1.519,1.519,0,0,1-1.1-.411,1.419,1.419,0,0,1-.423-1.071V87.231l-4,6.118a2.073,2.073,0,0,1-.56.473,1.127,1.127,0,0,1-.654.156,1.077,1.077,0,0,1-.622-.156,2.06,2.06,0,0,1-.56-.473l-4.015-6.336v10a1.494,1.494,0,0,1-.386,1.071,1.338,1.338,0,0,1-1.021.411,1.288,1.288,0,0,1-1-.423,1.506,1.506,0,0,1-.386-1.058V82.961a1.407,1.407,0,0,1,.448-1.046,1.488,1.488,0,0,1,1.083-.436,1.618,1.618,0,0,1,.728.18,1.419,1.419,0,0,1,.56.473l5.29,8.135,5.44-8.135a1.481,1.481,0,0,1,.523-.473,1.363,1.363,0,0,1,.666-.181A1.488,1.488,0,0,1,109.914,81.9Z" transform="translate(-94.129 -81.479)"/><path class="a" d="M136.422,94.942a1.544,1.544,0,0,1-1.027.361h-8a3.66,3.66,0,0,0,1.332,2.247,3.734,3.734,0,0,0,2.353.815,5.216,5.216,0,0,0,1.556-.181,4.077,4.077,0,0,0,.9-.392l.448-.28a1.867,1.867,0,0,1,.828-.218,1.2,1.2,0,0,1,.871.361,1.164,1.164,0,0,1,.361.853,1.512,1.512,0,0,1-.678,1.189,5.782,5.782,0,0,1-1.817.946,7.531,7.531,0,0,1-5.863-.461,5.932,5.932,0,0,1-2.34-2.34,6.846,6.846,0,0,1-.828-3.361,7.469,7.469,0,0,1,.871-3.666,6.224,6.224,0,0,1,2.309-2.415,5.956,5.956,0,0,1,3.056-.84,5.67,5.67,0,0,1,3.025.871,6.529,6.529,0,0,1,2.247,2.359A6.33,6.33,0,0,1,136.87,94,1.245,1.245,0,0,1,136.422,94.942Zm-9.006-2.066h6.361v-.168a2.49,2.49,0,0,0-1-1.761,3.149,3.149,0,0,0-2.042-.728A3.027,3.027,0,0,0,127.416,92.875Z" transform="translate(-105.599 -83.775)"/><path class="a" d="M148.768,98.139a1.463,1.463,0,0,1-.373-1.083v-.411a1.313,1.313,0,0,1,1.456-1.456h.317a1.313,1.313,0,0,1,1.456,1.456v.411a1.313,1.313,0,0,1-1.456,1.456h-.317A1.463,1.463,0,0,1,148.768,98.139Zm.355-5.913-.7-8.932a1.668,1.668,0,0,1,.4-1.245,1.494,1.494,0,0,1,1.176-.51,1.531,1.531,0,0,1,1.189.51,1.575,1.575,0,0,1,.386,1.245l-.678,8.932q-.075.921-.871.921t-.915-.921Z" transform="translate(-114.616 -81.502)"/></g></g><g transform="translate(0 0)"><g transform="translate(0 0)"><path class="a" d="M34.846,87.971a1.444,1.444,0,0,1,.436,1.071v10.27a1.45,1.45,0,0,1-.411,1.058,1.394,1.394,0,0,1-1.046.423,1.369,1.369,0,0,1-1.033-.411,1.525,1.525,0,0,1-.423-1.046,5.259,5.259,0,0,1-3.809,1.7,5.552,5.552,0,0,1-3.031-.859,6.037,6.037,0,0,1-2.178-2.384,7.469,7.469,0,0,1-.79-3.473,7.631,7.631,0,0,1,.778-3.486,5.969,5.969,0,0,1,2.122-2.4,5.409,5.409,0,0,1,2.975-.871,5.6,5.6,0,0,1,2.185.423,5.745,5.745,0,0,1,1.724,1.1h0a1.456,1.456,0,0,1,.411-1.058A1.394,1.394,0,0,1,33.8,87.6a1.413,1.413,0,0,1,1.046.373Zm-3.373,9.237a4.282,4.282,0,0,0,1-2.9,4.357,4.357,0,0,0-1-2.913,3.4,3.4,0,0,0-5.122,0,4.761,4.761,0,0,0,0,5.813,3.205,3.205,0,0,0,2.558,1.151A3.243,3.243,0,0,0,31.472,97.207Z" transform="translate(-22.558 -82.852)"/><path class="a" d="M59.14,80.385a1.45,1.45,0,0,1,.411,1.071v15a1.456,1.456,0,0,1-.411,1.058,1.394,1.394,0,0,1-1.046.423,1.376,1.376,0,0,1-1.033-.411,1.525,1.525,0,0,1-.423-1.046,5.259,5.259,0,0,1-3.809,1.7A5.552,5.552,0,0,1,49.8,97.32a6.044,6.044,0,0,1-2.147-2.384,7.469,7.469,0,0,1-.79-3.473,7.631,7.631,0,0,1,.778-3.486,5.969,5.969,0,0,1,2.122-2.4,5.409,5.409,0,0,1,2.975-.859,5.6,5.6,0,0,1,2.185.423,5.732,5.732,0,0,1,1.724,1.083V81.449a1.456,1.456,0,0,1,.411-1.058A1.394,1.394,0,0,1,58.1,80a1.419,1.419,0,0,1,1.039.386ZM55.766,94.352a4.282,4.282,0,0,0,1-2.9,4.357,4.357,0,0,0-1-2.913,3.4,3.4,0,0,0-5.122,0,4.768,4.768,0,0,0,0,5.813A3.205,3.205,0,0,0,53.171,95.5a3.243,3.243,0,0,0,2.6-1.151Z" transform="translate(-31.734 -79.997)"/><path class="a" d="M82.775,88.344a1.245,1.245,0,0,1,.386.934,1.867,1.867,0,0,1-.193.728l-4.537,10a1.506,1.506,0,0,1-.5.654,1.344,1.344,0,0,1-.741.268h-.218a1.276,1.276,0,0,1-.766-.255,1.668,1.668,0,0,1-.548-.691l-4.519-9.971a1.93,1.93,0,0,1-.143-.79,1.245,1.245,0,0,1,.411-.884,1.407,1.407,0,0,1,1.021-.4,1.575,1.575,0,0,1,.853.243,1.5,1.5,0,0,1,.585.678l3.349,7.668,3.324-7.649a1.593,1.593,0,0,1,.535-.7,1.145,1.145,0,0,1,.722-.2A1.344,1.344,0,0,1,82.775,88.344Z" transform="translate(-40.849 -82.996)"/></g></g></g></g></svg>