<svg id="Warstwa_1" data-name="Warstwa 1" xmlns="http://www.w3.org/2000/svg" viewBox="0 0 223.75 171.79"><defs><style>.cls-1{fill:#fff;}.cls-2{isolation:isolate;}.cls-3{fill:#00d1cd;}</style></defs><title>logo jasne</title><path id="Union_3" data-name="Union 3" class="cls-1" d="M133.48,169.54a144.88,144.88,0,0,1-15-11.52c-6.31-5.76-9.91-2.43-12.92-2.43s-57.09,8.79-67,9.09-13.22-12.12-13.22-12.12S10.9,69.82,10,55.27,20.81,39.81,23.82,39.81c2.64,0,96.64,5.32,119.57,6.61,4.52-4,17.38-9.27,26.09-17.83s15.6-26.35,15.95-25.31c.14.41,4.8,9.49,10.35,20.25l.07,0S203.33,21,207,26.11s-.19,11.3-2.8,13.07h-.3c5.78,11.17,10.69,20.63,10.69,20.63S199.64,56,185.43,57.73a31.26,31.26,0,0,0-9,2.7c-.32,4.72-4,58.48-5.42,71.22-1.5,13.34-6.31,14.25-8.41,15.46s-12,2.12-16.83,2.73-2.1,5.46-2.7,16.06c-.26,4.58-2.09,5.89-4.09,5.89C136.39,171.79,133.48,169.54,133.48,169.54Z"/><path d="M171.72,34.44a10.34,10.34,0,0,0,1.06-.54,39,39,0,0,0,5.7-4.12,22.76,22.76,0,0,0,5.45-6.48A1.5,1.5,0,1,0,181.25,22a14.78,14.78,0,0,1-2.33,3.23A34.14,34.14,0,0,1,174,29.5c-.8.59-1.55,1.08-2.16,1.46a11.42,11.42,0,0,1-1.3.72,1.5,1.5,0,0,0,1.17,2.76Z"/><path d="M24.91,159.92a1.5,1.5,0,0,0-1.75,1.2l-1.06,5.64a1.5,1.5,0,0,0,2.95.56l1.06-5.64A1.5,1.5,0,0,0,24.91,159.92Z"/><path d="M15.72,156.32l-6.87,8.13a1.5,1.5,0,1,0,2.29,1.94L18,158.26a1.5,1.5,0,1,0-2.29-1.94Z"/><path d="M13.47,149.6a1.5,1.5,0,0,0-1.94-.85l-5.35,2.08a1.5,1.5,0,1,0,1.09,2.8l5.35-2.08A1.5,1.5,0,0,0,13.47,149.6Z"/><path d="M210.09,22.38a1.5,1.5,0,0,0,2,.66l9.5-4.8a1.5,1.5,0,1,0-1.35-2.68l-9.5,4.8A1.5,1.5,0,0,0,210.09,22.38Z"/><path d="M222.54,39.7l-10.17-3.14a1.5,1.5,0,0,0-.89,2.87l10.17,3.14a1.5,1.5,0,1,0,.89-2.87Z"/><path d="M213.08,28.65a1.5,1.5,0,0,0-.09,3l5.74.17a1.5,1.5,0,0,0,.09-3Z"/><path d="M165.58,81.36a1.5,1.5,0,0,0-1.7,1.27s-3.88,26.78-5.37,39.83a33.48,33.48,0,0,1-1.55,7.35,10.69,10.69,0,0,1-3.06,4.89,8.15,8.15,0,0,1-1.47,1c-.48.26-1,.46-1.45.74a4.21,4.21,0,0,1-.79.29,28.4,28.4,0,0,1-3.06.65c-3.76.63-9,1.15-12.15,1.54a5.57,5.57,0,0,0-2,.59,3.81,3.81,0,0,0-1.16,1,4.51,4.51,0,0,0-.88,1.95,10.64,10.64,0,0,0-.18,2.18c0,2.13.31,4.78.31,8.25,0,1,0,2-.09,3.16h0a6.36,6.36,0,0,1-1,3.67,1.69,1.69,0,0,1-.66.5,2.14,2.14,0,0,1-.84.15,7,7,0,0,1-3-.92,13.17,13.17,0,0,1-1.13-.68l-.31-.22-.08-.06h0l0,0,0,0a141.05,141.05,0,0,1-14.63-11.11h0a15.64,15.64,0,0,0-4.31-2.88,9.59,9.59,0,0,0-3.8-.79,13.49,13.49,0,0,0-3.41.51,9.73,9.73,0,0,1-2.18.42l-.55,0c-.79.07-2.21.25-4.17.52-6.84.94-20.12,3-32.73,4.78-6.3.91-12.43,1.76-17.5,2.41s-9.08,1.07-11,1.13h-.3a8.92,8.92,0,0,1-5.14-1.59,15.16,15.16,0,0,1-4.68-5.68,22,22,0,0,1-1.07-2.48c-.11-.31-.2-.57-.25-.73l-.05-.18-.6-3.42c-1.36-7.82-4.79-27.56-8-46.9C7.94,82.72,6.41,73.15,5.24,65.24S3.23,51,3,48q0-.74,0-1.42a13.48,13.48,0,0,1,1.54-6.76A9.26,9.26,0,0,1,7,37a12,12,0,0,1,4.57-2,16.19,16.19,0,0,1,3.54-.4l.55,0c4.82.2,35.33,1.87,64.6,3.5L120,40.29,132.8,41l4.84.27a1.5,1.5,0,1,0,.17-3s-29.91-1.68-60.18-3.36l-42-2.31-14.29-.76-4.26-.21-1.26-.06-.67,0A17.63,17.63,0,0,0,6.5,33.77a12.4,12.4,0,0,0-4.57,4.62A16.46,16.46,0,0,0,0,46.62q0,.78.05,1.61c.12,1.85.44,4.67.91,8.26C2.63,69,6.17,90.69,9.3,109.27s5.85,34,5.85,34v.07l0,.06a23.72,23.72,0,0,0,3,6.36,16.35,16.35,0,0,0,4.31,4.47,12,12,0,0,0,6.82,2.11h.4c1.3,0,3.22-.21,5.63-.47,8.43-.93,22.89-3,35.58-4.9,6.34-.94,12.24-1.81,16.71-2.46,2.23-.32,4.11-.58,5.5-.77l1.7-.21c.42,0,.73-.07.76-.07a12,12,0,0,0,2.92-.51,10.63,10.63,0,0,1,2.67-.42,6.57,6.57,0,0,1,2.62.56,12.7,12.7,0,0,1,3.49,2.36h0a144.05,144.05,0,0,0,14.89,11.32,15.23,15.23,0,0,0,1.93,1.2,9.78,9.78,0,0,0,4.39,1.27,5.14,5.14,0,0,0,2-.39,5,5,0,0,0,2.48-2.38,10.82,10.82,0,0,0,1-4.39h0c.07-1.18.09-2.29.09-3.33,0-3.63-.32-6.41-.31-8.25a8.52,8.52,0,0,1,.1-1.43,2.42,2.42,0,0,1,.17-.6.79.79,0,0,1,.32-.38,2.43,2.43,0,0,1,1-.28c2.34-.29,6-.66,9.29-1.11,1.66-.22,3.25-.47,4.58-.74.67-.14,1.27-.28,1.81-.43a6.77,6.77,0,0,0,1.44-.57c.37-.22,1.12-.53,2-1a11.13,11.13,0,0,0,4.14-4.45c1.28-2.36,2.33-5.72,2.9-10.72.74-6.48,2.08-16.42,3.23-24.74.58-4.16,1.11-7.91,1.5-10.62s.63-4.38.63-4.38A1.5,1.5,0,0,0,165.58,81.36Z"/><path d="M209.65,50.44l-7.42-14.33a11.08,11.08,0,0,0,2-2.58,10.47,10.47,0,0,0,1.44-5.12,8.26,8.26,0,0,0-1.55-4.84,7.69,7.69,0,0,0-3.49-2.73,10,10,0,0,0-3.69-.65,14,14,0,0,0-2.8.3c-1.92-3.73-3.7-7.17-5.1-9.92l-2.26-4.42-.64-1.27L186,4.51l0-.08h0a1.52,1.52,0,0,0-.37-.55,1.54,1.54,0,0,0-1.87-.21,1.77,1.77,0,0,0-.48.42,4.36,4.36,0,0,0-.37.57c-.21.37-.46.85-.76,1.45-1,2.08-2.72,5.58-4.83,9.26a48.76,48.76,0,0,1-7.37,10.13,64.34,64.34,0,0,1-12.33,8.92c-2.08,1.23-4.06,2.35-5.77,3.38a27.52,27.52,0,0,0-4.25,3,11.55,11.55,0,0,0-2.71,4.14,15.17,15.17,0,0,0-1.1,5.63,13,13,0,0,0,1.71,6.53,14.05,14.05,0,0,0,5.9,5.41,11.54,11.54,0,0,0,5.36,1.29,15.48,15.48,0,0,0,4.2-.63c0,.76.11,1.7.19,2.66s.18,2.24.29,3.17c.05.46.11.87.16,1.22,0,.17.06.33.1.49s0,.16.07.25a2,2,0,0,0,.15.33h0c.08.14.24.45.47.81A6.65,6.65,0,0,0,164,73.84a5.16,5.16,0,0,0,3.08,1,5.9,5.9,0,0,0,.67,0,4.72,4.72,0,0,0,2.54-1.11A7.11,7.11,0,0,0,172.12,71a8.69,8.69,0,0,0,.49-1.48l0-.21L171.76,58c.8-.44,1.61-.89,2.42-1.31a31.33,31.33,0,0,1,10.55-3.83,54.16,54.16,0,0,1,6.53-.37,79.17,79.17,0,0,1,12.45,1.06c1.63.27,3,.53,3.89.73l1.06.24.27.07.08,0a1.5,1.5,0,0,0,1.7-2.14ZM197,23.17a7.07,7.07,0,0,1,2.59.44,4.67,4.67,0,0,1,2.15,1.68,5.24,5.24,0,0,1,1,3.1,7.5,7.5,0,0,1-1,3.64,8.33,8.33,0,0,1-.87,1.24l-4.67-9-.51-1A10.08,10.08,0,0,1,197,23.17ZM186,4.49h0ZM152.71,59.81A11,11,0,0,1,148,55.57a10,10,0,0,1-1.3-5,12.19,12.19,0,0,1,.88-4.5,8.64,8.64,0,0,1,2-3.06,25.07,25.07,0,0,1,3.77-2.63c1.87-1.13,4.15-2.41,6.57-3.86l10.51,18.83-1.19.66a69.25,69.25,0,0,1-6.63,3.38,15.56,15.56,0,0,1-5.91,1.41A8.52,8.52,0,0,1,152.71,59.81Zm16.91,9.32A6.25,6.25,0,0,1,169,70.5a3.43,3.43,0,0,1-.75.92,1.69,1.69,0,0,1-.91.4l-.33,0a2.15,2.15,0,0,1-.94-.2,2.87,2.87,0,0,1-1-.85,5.2,5.2,0,0,1-.36-.53l-.2-.36c0-.09-.06-.28-.09-.51-.16-1.09-.33-3.15-.45-4.9-.06-.88-.11-1.68-.15-2.26V62.1c1.68-.71,3.35-1.57,5-2.49ZM191.25,49.5a57.15,57.15,0,0,0-6.89.4,33.52,33.52,0,0,0-11.29,4l-10.59-19A57.34,57.34,0,0,0,172,27.63c3.86-3.8,7.13-9.3,9.57-13.86,1.18-2.21,2.15-4.19,2.87-5.64,2.36,4.64,7.71,15,12.73,24.72L206.58,51A83.91,83.91,0,0,0,191.25,49.5Z"/><path d="M197.5,13.22a1.5,1.5,0,0,0,1.84-1.05l2.79-10.27a1.5,1.5,0,0,0-2.9-.79l-2.79,10.27A1.5,1.5,0,0,0,197.5,13.22Z"/><path d="M205,16.14a1.5,1.5,0,0,0,2.08-.42l3.18-4.78a1.5,1.5,0,1,0-2.5-1.66l-3.18,4.78A1.5,1.5,0,0,0,205,16.14Z"/><g id="Me_" data-name="Me " class="cls-2"><g class="cls-2"><path class="cls-3" d="M119.49,82.16a2.24,2.24,0,0,1,.72,1.7v22.58a2.3,2.3,0,0,1-2.42,2.38,2.44,2.44,0,0,1-1.77-.66,2.28,2.28,0,0,1-.68-1.72V90.72l-6.43,9.83a3.33,3.33,0,0,1-.9.76,1.81,1.81,0,0,1-1.05.25,1.73,1.73,0,0,1-1-.25,3.31,3.31,0,0,1-.9-.76L98.61,90.37v16.07a2.4,2.4,0,0,1-.62,1.72,2.15,2.15,0,0,1-1.64.66,2.07,2.07,0,0,1-1.6-.68,2.42,2.42,0,0,1-.62-1.7V83.86a2.26,2.26,0,0,1,.72-1.68,2.39,2.39,0,0,1,1.74-.7,2.6,2.6,0,0,1,1.17.29,2.28,2.28,0,0,1,.9.76l8.5,13.07,8.74-13.07a2.38,2.38,0,0,1,.84-.76,2.19,2.19,0,0,1,1.07-.29A2.39,2.39,0,0,1,119.49,82.16Z"/><path class="cls-3" d="M143.65,99.42A2.48,2.48,0,0,1,142,100H129.14a5.88,5.88,0,0,0,2.14,3.61,6,6,0,0,0,3.78,1.31,8.38,8.38,0,0,0,2.5-.29A6.55,6.55,0,0,0,139,104l.72-.45a3,3,0,0,1,1.33-.35,1.92,1.92,0,0,1,1.4.58,1.87,1.87,0,0,1,.58,1.37,2.43,2.43,0,0,1-1.09,1.91,9.29,9.29,0,0,1-2.92,1.52,12.1,12.1,0,0,1-9.42-.74,9.53,9.53,0,0,1-3.76-3.76,11,11,0,0,1-1.33-5.4,12,12,0,0,1,1.4-5.89,10,10,0,0,1,3.71-3.88,9.57,9.57,0,0,1,4.91-1.35,9.11,9.11,0,0,1,4.86,1.4A10.49,10.49,0,0,1,143,92.75a10.17,10.17,0,0,1,1.37,5.15A2,2,0,0,1,143.65,99.42ZM129.18,96.1H139.4v-.27A4,4,0,0,0,137.8,93a5.06,5.06,0,0,0-3.28-1.17Q130,91.85,129.18,96.1Z"/><path class="cls-3" d="M149,108.21a2.35,2.35,0,0,1-.6-1.74v-.66a2.11,2.11,0,0,1,2.34-2.34h.51a2.11,2.11,0,0,1,2.34,2.34v.66a2.11,2.11,0,0,1-2.34,2.34h-.51A2.35,2.35,0,0,1,149,108.21Zm.57-9.5-1.13-14.35a2.68,2.68,0,0,1,.64-2,2.4,2.4,0,0,1,1.89-.82,2.46,2.46,0,0,1,1.91.82,2.53,2.53,0,0,1,.62,2l-1.09,14.35q-.12,1.48-1.4,1.48T149.54,98.71Z"/></g></g><g id="adv" class="cls-2"><g class="cls-2"><path d="M42.3,88.22A2.32,2.32,0,0,1,43,89.94v16.5a2.33,2.33,0,0,1-.66,1.7,2.24,2.24,0,0,1-1.68.68,2.2,2.2,0,0,1-1.66-.66,2.45,2.45,0,0,1-.68-1.68,8.45,8.45,0,0,1-6.12,2.73,8.92,8.92,0,0,1-4.87-1.38A9.7,9.7,0,0,1,23.83,104a12,12,0,0,1-1.27-5.58,12.26,12.26,0,0,1,1.25-5.6,9.59,9.59,0,0,1,3.41-3.86A8.69,8.69,0,0,1,32,87.56a9,9,0,0,1,3.51.68A9.23,9.23,0,0,1,38.28,90v0a2.34,2.34,0,0,1,.66-1.7,2.24,2.24,0,0,1,1.68-.68A2.27,2.27,0,0,1,42.3,88.22Zm-5.42,14.84a6.88,6.88,0,0,0,1.6-4.66,7,7,0,0,0-1.6-4.68,5.46,5.46,0,0,0-8.23,0,7.65,7.65,0,0,0,0,9.34,5.15,5.15,0,0,0,4.11,1.85A5.21,5.21,0,0,0,36.88,103.06Z"/><path d="M66.59,80.62a2.33,2.33,0,0,1,.66,1.72v24.1a2.34,2.34,0,0,1-.66,1.7,2.24,2.24,0,0,1-1.68.68,2.21,2.21,0,0,1-1.66-.66,2.45,2.45,0,0,1-.68-1.68,8.45,8.45,0,0,1-6.12,2.73,8.92,8.92,0,0,1-4.87-1.38A9.71,9.71,0,0,1,48.13,104a12,12,0,0,1-1.27-5.58,12.26,12.26,0,0,1,1.25-5.6,9.59,9.59,0,0,1,3.41-3.86,8.69,8.69,0,0,1,4.78-1.38,9,9,0,0,1,3.51.68A9.21,9.21,0,0,1,62.58,90V82.33a2.34,2.34,0,0,1,.66-1.7A2.24,2.24,0,0,1,64.92,80,2.28,2.28,0,0,1,66.59,80.62Zm-5.42,22.44a6.88,6.88,0,0,0,1.6-4.66,7,7,0,0,0-1.6-4.68,5.46,5.46,0,0,0-8.23,0,7.66,7.66,0,0,0,0,9.34A5.15,5.15,0,0,0,57,104.91,5.21,5.21,0,0,0,61.17,103.06Z"/><path d="M89.92,88.59a2,2,0,0,1,.62,1.5,3,3,0,0,1-.31,1.17l-7.29,16.07a2.42,2.42,0,0,1-.8,1.05,2.16,2.16,0,0,1-1.19.43l-.35,0a2.05,2.05,0,0,1-1.23-.41,2.68,2.68,0,0,1-.88-1.11L71.23,91.27A3.1,3.1,0,0,1,71,90a2,2,0,0,1,.66-1.42,2.26,2.26,0,0,1,1.64-.64,2.53,2.53,0,0,1,1.37.39,2.41,2.41,0,0,1,.94,1.09l5.38,12.32,5.34-12.29a2.56,2.56,0,0,1,.86-1.13A1.84,1.84,0,0,1,88.35,88,2.16,2.16,0,0,1,89.92,88.59Z"/></g></g></svg>