<svg xmlns="http://www.w3.org/2000/svg" width="27.474" height="27.846" viewBox="0 0 27.474 27.846"><defs><style>.a{fill:#fff;}</style></defs><g transform="translate(-63.3 -29)"><path class="a" d="M106.445,42.711a2.294,2.294,0,1,0,4.588.053V32.5a13.879,13.879,0,0,0-.027-1.485,2.252,2.252,0,0,0-1.909-1.989.1.1,0,0,1-.08-.027h-.557a2.011,2.011,0,0,0-1.008.424,2.311,2.311,0,0,0-1.008,1.962v6.63Q106.405,40.364,106.445,42.711Z" transform="translate(-31.688 0)"/><path class="a" d="M90.774,49.345c-.08-.477-.133-1.087-.239-1.671a13.49,13.49,0,0,0-2.519-5.622,12.951,12.951,0,0,0-2.705-2.678,2.28,2.28,0,0,0-3.235,3.156,3.018,3.018,0,0,0,.5.5,9.057,9.057,0,0,1,3.288,4.8A9.162,9.162,0,0,1,81.7,58.2a9.149,9.149,0,0,1-12.65-3.368,8.624,8.624,0,0,1-1.167-5.171,8.868,8.868,0,0,1,3.5-6.524,2.434,2.434,0,0,0,1.061-1.883,2.217,2.217,0,0,0-1.193-2.1,2.124,2.124,0,0,0-2.413.159A13.282,13.282,0,0,0,64.361,45,13.832,13.832,0,0,0,63.3,49.478V51.1a13.832,13.832,0,0,0,4.137,9.07,13.665,13.665,0,0,0,9.149,3.925h.928a13.833,13.833,0,0,0,13.26-12.942Z" transform="translate(0 -7.245)"/></g></svg>