<svg xmlns="http://www.w3.org/2000/svg" width="22.033" height="20.965" viewBox="0 0 22.033 20.965"><defs><style>.a{fill:#00ece7;}</style></defs><path class="a" d="M65.383,48.6h0L58,41.814a7.713,7.713,0,0,0,1.353-4.386h0a7.825,7.825,0,0,0-2.3-5.533h0a7.825,7.825,0,0,0-5.533-2.3h0A7.825,7.825,0,0,0,46,31.9h0a7.825,7.825,0,0,0-2.3,5.533h0A7.825,7.825,0,0,0,46,42.962h0a7.825,7.825,0,0,0,5.533,2.3h0a7.817,7.817,0,0,0,4.919-1.742c.02-.02.041-.02.041-.041l7.357,6.783a1.124,1.124,0,0,0,.758.307,1.061,1.061,0,0,0,.82-.369,1.124,1.124,0,0,0,.307-.758A1.045,1.045,0,0,0,65.383,48.6ZM55.156,41.937a5.8,5.8,0,0,1-7.726-.43h0a5.758,5.758,0,0,1-1.7-4.1,5.831,5.831,0,0,1,1.7-4.1h0a5.758,5.758,0,0,1,4.1-1.7,5.831,5.831,0,0,1,4.1,1.7h0a5.758,5.758,0,0,1,1.7,4.1A5.883,5.883,0,0,1,55.156,41.937Z" transform="translate(-43.7 -29.6)"/></svg>