<svg xmlns="http://www.w3.org/2000/svg" width="18.655" height="24.624" viewBox="0 0 18.655 24.624"><defs><style>.a{fill:#00ece7;}</style></defs><path class="a" d="M21.07,5.27Z" transform="translate(-2.894 -0.856)"/><path class="a" d="M21.495,6.1a1,1,0,0,0-.469-.847L14.186,1h0a1,1,0,0,0-1.386.319h0L3,17.032H3a1,1,0,0,0-.16.538v.1h0l.429,6.88v.189l.07.11v.09l.07.17.09.05v.11l.15.09.1.06H3.9l.09.05h.489l6.5-2.692h0a1,1,0,0,0,.508-.409h0l7.687-12.3h0l2.213-3.549v-.05A1,1,0,0,0,21.495,6.1Zm-2.383.329L18.035,8.158,12.89,4.988l1.077-1.765ZM5.2,17.251l6.63-10.609L13.548,7.72,6.918,18.328Zm3.42,2.134,6.63-10.609,1.7,1.077-6.62,10.609Zm-3.679.06,3.53,2.213-2.652,1.1-.7-.439Z" transform="translate(-2.84 -0.843)"/></svg>