<svg xmlns="http://www.w3.org/2000/svg" width="19.082" height="19.771" viewBox="0 0 19.082 19.771"><defs><style>.a{fill:#00ece7;}</style></defs><path class="a" d="M21.507-28.755a1.114,1.114,0,0,1,.851.344,1.221,1.221,0,0,1,.324.871,1.12,1.12,0,0,1-.324.79,1.114,1.114,0,0,1-.851.344h-7.09v7.414a1.331,1.331,0,0,1-.365.952,1.227,1.227,0,0,1-.932.385,1.246,1.246,0,0,1-.912-.385,1.246,1.246,0,0,1-.385-.912v-7.455H4.775a1.114,1.114,0,0,1-.851-.344,1.221,1.221,0,0,1-.324-.871,1.1,1.1,0,0,1,.324-.81,1.15,1.15,0,0,1,.851-.324h7.049v-7.374a1.262,1.262,0,0,1,.365-.932,1.262,1.262,0,0,1,.932-.365,1.287,1.287,0,0,1,.952.344,1.232,1.232,0,0,1,.344.912v7.414Z" transform="translate(-3.6 37.425)"/></svg>