<svg xmlns="http://www.w3.org/2000/svg" width="22.506" height="20.036" viewBox="0 0 22.506 20.036"><defs><style>.a{fill:#00ece7;}</style></defs><path class="a" d="M25.466,10.777A6.005,6.005,0,0,0,23.571,6.4,6.457,6.457,0,0,0,19.2,4.64,5.7,5.7,0,0,0,15.452,6.1a7.871,7.871,0,0,0-1.239,1.458A7.871,7.871,0,0,0,12.974,6.1,5.7,5.7,0,0,0,9.228,4.64,6.457,6.457,0,0,0,4.855,6.4,5.991,5.991,0,0,0,2.96,10.777V11h0a9.168,9.168,0,0,0,1.749,4.781,32.884,32.884,0,0,0,5.554,6.107c1.837,1.633,3.338,2.711,3.425,2.784h0a.962.962,0,0,0,.233,0,.962.962,0,0,0,.248,0,.962.962,0,0,0,.219,0,.962.962,0,0,0,.248,0h0a51.017,51.017,0,0,0,5.335-4.577A27.768,27.768,0,0,0,23.6,15.718,9.183,9.183,0,0,0,25.451,11h0ZM23.425,11a7.288,7.288,0,0,1-1.458,3.717,31.033,31.033,0,0,1-5.2,5.7c-1.108.991-2.1,1.764-2.682,2.216a49.472,49.472,0,0,1-4.519-3.936A25.829,25.829,0,0,1,6.2,14.712,7.288,7.288,0,0,1,4.826,11h0v-.219A3.979,3.979,0,0,1,6.094,7.861,4.446,4.446,0,0,1,9.14,6.622a3.7,3.7,0,0,1,2.42,1.02,6.02,6.02,0,0,1,1.662,2.449,1.006,1.006,0,0,0,1.895,0,6.02,6.02,0,0,1,1.633-2.405,3.7,3.7,0,0,1,2.376-1.064,4.446,4.446,0,0,1,3.046,1.21,3.979,3.979,0,0,1,1.268,2.915V11Z" transform="translate(-2.96 -4.64)"/></svg>